<svg width="34" height="34" viewBox="0 0 34 34" fill="none" xmlns="http://www.w3.org/2000/svg">
  <g clip-path="url(#clip0_1_14)">
    <path d="M11.475 18.8983L15.4842 14.8891L6.715 6.13411C6.035 5.45411 4.85917 5.63827 4.43417 6.51661C3.42833 8.62744 3.79667 11.2199 5.53917 12.9766L11.475 18.8983ZM21.08 16.3341C23.2475 17.3399 26.2933 16.6316 28.5458 14.3791C31.2517 11.6733 31.7758 7.79161 29.6933 5.70911C27.625 3.64077 23.7433 4.15077 21.0233 6.85661C18.7708 9.10911 18.0625 12.1549 19.0683 14.3224L6.2475 27.1433C5.695 27.6958 5.695 28.5883 6.2475 29.1408C6.8 29.6933 7.6925 29.6933 8.245 29.1408L17 20.4141L25.755 29.1691C26.3075 29.7216 27.2 29.7216 27.7525 29.1691C28.305 28.6166 28.305 27.7241 27.7525 27.1716L18.9975 18.4166L21.08 16.3341Z" fill="#F2994A"/>
  </g>
  <defs>
    <clipPath id="clip0_1_14">
      <rect width="34" height="34" fill="white"/>
    </clipPath>
  </defs>
</svg>