<svg width="34" height="34" viewBox="0 0 34 34" fill="none" xmlns="http://www.w3.org/2000/svg">
  <g clip-path="url(#clip0_1_24)">
    <path d="M16.9858 2.83331C9.16584 2.83331 2.83334 9.17998 2.83334 17C2.83334 24.82 9.16584 31.1666 16.9858 31.1666C24.82 31.1666 31.1667 24.82 31.1667 17C31.1667 9.17998 24.82 2.83331 16.9858 2.83331ZM17 28.3333C10.7383 28.3333 5.66667 23.2616 5.66667 17C5.66667 10.7383 10.7383 5.66665 17 5.66665C23.2617 5.66665 28.3333 10.7383 28.3333 17C28.3333 23.2616 23.2617 28.3333 17 28.3333ZM16.6883 9.91665H16.6033C16.0367 9.91665 15.5833 10.37 15.5833 10.9366V17.6233C15.5833 18.1191 15.8383 18.5866 16.2775 18.8416L22.1567 22.3691C22.6383 22.6525 23.2617 22.5108 23.545 22.0291C23.8425 21.5475 23.6867 20.91 23.1908 20.6266L17.7083 17.3683V10.9366C17.7083 10.37 17.255 9.91665 16.6883 9.91665Z" fill="#4F4F4F"/>
  </g>
  <defs>
    <clipPath id="clip0_1_24">
      <rect width="34" height="34" fill="white"/>
    </clipPath>
  </defs>
</svg>